<svg id="Calque_1" data-name="Calque 1" xmlns="http://www.w3.org/2000/svg" viewBox="0 0 57.19 25.53"><defs><style>.cls-1{fill:#f39200;}</style></defs><title>Draft_logo</title><path class="cls-1" d="M46.19,94.81l-3.06,24.83a.19.19,0,0,1-.19.16H40a.19.19,0,0,1-.19-.21L40,118.3a8.66,8.66,0,0,1-2.11,1.47,5.81,5.81,0,0,1-2.18.36,6.44,6.44,0,0,1-4.84-1.95A7.09,7.09,0,0,1,29,113.1a7.74,7.74,0,0,1,2.06-5.5,6.83,6.83,0,0,1,5.18-2.2,5.91,5.91,0,0,1,2.69.56A7.8,7.8,0,0,1,41,107.59a.19.19,0,0,0,.33-.1l1.55-12.72a.2.2,0,0,1,.19-.17H46A.19.19,0,0,1,46.19,94.81Zm-5.41,17.35a3.79,3.79,0,0,0-4-4,4.11,4.11,0,0,0-3.21,1.45,5.39,5.39,0,0,0-1.26,3.66,4.15,4.15,0,0,0,1.09,3,3.86,3.86,0,0,0,2.89,1.12,4,4,0,0,0,3.18-1.53A5.4,5.4,0,0,0,40.78,112.16Z" transform="translate(-28.99 -94.6)"/><path class="cls-1" d="M49.71,105.75,49.56,107a4.93,4.93,0,0,1,3.37-1.59,3.94,3.94,0,0,1,2.57,1,.19.19,0,0,1,0,.27L53.66,109a.2.2,0,0,1-.27,0,2.67,2.67,0,0,0-1.67-.66,2.41,2.41,0,0,0-1.1.25,2.12,2.12,0,0,0-.83.78,4.67,4.67,0,0,0-.58,1.36,12.62,12.62,0,0,0-.37,2L48,119.64a.19.19,0,0,1-.19.16H44.89a.18.18,0,0,1-.18-.21l1.68-13.68a.19.19,0,0,1,.19-.16Z" transform="translate(-28.99 -94.6)"/><path class="cls-1" d="M74.81,109l-1.3,10.67a.2.2,0,0,1-.19.16H70.4a.19.19,0,0,1-.19-.21L71.52,109a.19.19,0,0,0-.19-.21H69.61a.19.19,0,0,1-.19-.21l.33-2.69a.19.19,0,0,1,.19-.16h1.81a.19.19,0,0,0,.19-.17l.76-6.11a6.64,6.64,0,0,1,1.35-3.69,3.89,3.89,0,0,1,3-1.18,6.62,6.62,0,0,1,2.66.7.2.2,0,0,1,.11.2l-.3,2.44a.19.19,0,0,1-.3.12,2.55,2.55,0,0,0-1.44-.55,1.55,1.55,0,0,0-1.33.61,6,6,0,0,0-.61,2.26l-.63,5.16a.19.19,0,0,0,.19.21H78a.18.18,0,0,1,.18.21l-.32,2.68a.19.19,0,0,1-.19.17H75A.19.19,0,0,0,74.81,109Z" transform="translate(-28.99 -94.6)"/><path class="cls-1" d="M82.77,109l-1.32,10.67a.19.19,0,0,1-.19.16H78.35a.18.18,0,0,1-.19-.21l1.33-10.78H77.62l.38-3.06h1.86l.79-6.36a.19.19,0,0,1,.19-.16h2.91a.19.19,0,0,1,.19.21l-.75,6.1a.18.18,0,0,0,.18.21H86a.19.19,0,0,1,.19.21l-.33,2.68a.19.19,0,0,1-.19.17H83A.18.18,0,0,0,82.77,109Z" transform="translate(-28.99 -94.6)"/><path class="cls-1" d="M64.33,110.85a17.17,17.17,0,0,1,3.91,1.08,6.92,6.92,0,0,0-2-4.11A4.7,4.7,0,0,0,64.33,110.85Z" transform="translate(-28.99 -94.6)"/><path class="cls-1" d="M64.26,111.54v.23a4.57,4.57,0,0,0,3.16,4.4,7,7,0,0,0,.88-3.39s0-.06,0-.09A16.71,16.71,0,0,0,64.26,111.54Z" transform="translate(-28.99 -94.6)"/><path class="cls-1" d="M63.57,111.78c0-.12,0-.23,0-.34l-.24,0c-.57-.06-1.15-.09-1.73-.1v8.49a7,7,0,0,0,5.44-3A5.28,5.28,0,0,1,63.57,111.78Z" transform="translate(-28.99 -94.6)"/><path class="cls-1" d="M59,111.43a2.53,2.53,0,0,1,0,.28,5.36,5.36,0,0,1-3.56,5.07,7,7,0,0,0,5.45,3v-8.49c-.59,0-1.17,0-1.73.1Z" transform="translate(-28.99 -94.6)"/><path class="cls-1" d="M58.35,111.71c0-.07,0-.12,0-.18a16.47,16.47,0,0,0-4.11,1.16v.09a7,7,0,0,0,.87,3.39A4.65,4.65,0,0,0,58.35,111.71Z" transform="translate(-28.99 -94.6)"/><path class="cls-1" d="M56.29,107.8a7,7,0,0,0-2,4.13,17.4,17.4,0,0,1,4-1.09A4.64,4.64,0,0,0,56.29,107.8Z" transform="translate(-28.99 -94.6)"/><path class="cls-1" d="M59,110.75l.16,0c.59-.06,1.2-.1,1.81-.11v-4.87a7,7,0,0,0-4.11,1.58A5.35,5.35,0,0,1,59,110.75Z" transform="translate(-28.99 -94.6)"/><path class="cls-1" d="M63.65,110.76a5.39,5.39,0,0,1,2.08-3.41,7,7,0,0,0-4.12-1.6v4.87c.6,0,1.21,0,1.8.11Z" transform="translate(-28.99 -94.6)"/><path class="cls-1" d="M69.16,105.75H66.25a.19.19,0,0,0-.19.16l-.19,1.57a7,7,0,0,1-1.42,11.57l-.07.54a.18.18,0,0,0,.18.21h2.92a.19.19,0,0,0,.19-.16L69.35,106A.18.18,0,0,0,69.16,105.75Z" transform="translate(-28.99 -94.6)"/><path class="cls-1" d="M60.92,119.8a7,7,0,0,1,0-14v-.36a6.75,6.75,0,0,0-5.06,2.22,8.17,8.17,0,0,0-2,5.7,6.91,6.91,0,0,0,1.76,4.91,5.93,5.93,0,0,0,4.55,1.89,6.51,6.51,0,0,0,.76-.07Z" transform="translate(-28.99 -94.6)"/><path class="cls-1" d="M61.61,105.77A7,7,0,0,1,65.2,107a6.08,6.08,0,0,0-1.54-1.06,5.52,5.52,0,0,0-2-.47Z" transform="translate(-28.99 -94.6)"/><path class="cls-1" d="M61.61,119.91a5.52,5.52,0,0,0,.54-.16,4.9,4.9,0,0,1-.54,0Z" transform="translate(-28.99 -94.6)"/></svg>